# xmcd
#
# Track frame offsets:
# 150
# 13775
# 29092
# 45297
# 61800
# 77291
# 95257
# 113282
# 130823
# 143987
# 159736
# 173370
#
# Disc length: 2520 seconds
#
#
# Revision: 0
# Processed by: cddbd v1.5.2PL0 Copyright (c) Steve Scherf et al.
# Submitted via: FreeRIP 2.96 
#
DISCID=8509d60c
DTITLE=eu - Forrozão cueca mijada
DYEAR=2007
DGENRE=forro
TTITLE0=musica 1
TTITLE1=musica 2
TTITLE2=musica 3
TTITLE3=musica 4
TTITLE4=musica 5
TTITLE5=musica 6
TTITLE6=musica 7
TTITLE7=musica 8
TTITLE8=musica 9
TTITLE9=musica 10
TTITLE10=musica 11
TTITLE11=musica 12
EXTD=Muito Ruim
EXTT0=
EXTT1=
EXTT2=
EXTT3=
EXTT4=
EXTT5=
EXTT6=
EXTT7=
EXTT8=
EXTT9=
EXTT10=
EXTT11=
PLAYORDER=
